<svg width="51" height="49" viewBox="0 0 51 49" fill="none" xmlns="http://www.w3.org/2000/svg">
<g clip-path="url(#clip0)">
<path d="M37.4005 24.0513C37.203 24.2261 36.8644 24.3241 36.3299 24.2572C35.8013 24.191 35.1557 23.9703 34.4484 23.6125C33.0363 22.8983 31.478 21.6889 30.2783 20.3304C29.0787 18.9719 28.0708 17.2753 27.5358 15.7847C27.2678 15.0381 27.1281 14.3696 27.1273 13.8362C27.1264 13.297 27.2651 12.9725 27.4626 12.7977C27.66 12.6229 27.9987 12.5248 28.5332 12.5918C29.0618 12.658 29.7073 12.8787 30.4147 13.2364C31.8267 13.9507 33.385 15.16 34.5847 16.5186C35.7844 17.8771 36.7923 19.5736 37.3273 21.0642C37.5953 21.8109 37.7349 22.4794 37.7358 23.0128C37.7367 23.552 37.598 23.8765 37.4005 24.0513Z" fill="#CAE1F2" stroke="#2A2C50"/>
<path d="M25.9336 11.8211L38.1836 25.6879C38.3924 25.9243 38.333 26.2927 38.0605 26.4515L29.9102 31.1996C29.7042 31.3196 29.4421 31.2774 29.2843 31.0986L19.4771 19.9971C19.3193 19.8184 19.3095 19.553 19.4537 19.3631L25.1613 11.8498C25.3521 11.5986 25.7248 11.5848 25.9336 11.8211Z" stroke="#2A2C50"/>
<path d="M19.6871 20.1533L20.8249 18.7849L30.6473 29.9077L29.0873 30.8793L19.6871 20.1533Z" fill="#2A2C50" stroke="#2A2C50"/>
<path d="M25.3118 15.5563L26.5208 13.8137L36.2775 24.8621L34.402 25.8499L25.3118 15.5563Z" fill="white" stroke="white"/>
<path d="M20.7437 21.2415L28.2071 29.6931C28.4067 29.9191 28.3626 30.2693 28.1131 30.4386L20.3952 35.676C20.1872 35.8171 19.9069 35.7817 19.7405 35.5933L13.8573 28.9312C13.6909 28.7428 13.6902 28.4599 13.8556 28.2705L19.9931 21.2436C20.1915 21.0165 20.5441 21.0155 20.7437 21.2415Z" stroke="#2A2C50"/>
<path d="M14.1497 29.2619L15.3752 27.0608L21.7789 34.3123L19.4468 35.2603L14.1497 29.2619Z" fill="#2A2C50" stroke="#2A2C50"/>
<path d="M15.5839 30.6969L18.2012 33.6607C18.3967 33.8821 18.3589 34.224 18.1198 34.3973L14.2548 37.1983C14.0465 37.3492 13.7577 37.3173 13.5874 37.1244L11.5849 34.8568C11.4146 34.664 11.4183 34.3732 11.5935 34.1847L14.8437 30.6875C15.0448 30.4711 15.3884 30.4755 15.5839 30.6969Z" fill="white" stroke="#2A2C50"/>
<rect x="-0.0434313" y="0.706185" width="10.0863" height="2.37555" rx="1.18778" transform="matrix(0.661931 0.749565 -0.748793 0.662804 9.89887 31.6926)" fill="#2A2C50" stroke="#2A2C50"/>
<ellipse rx="2.51895" ry="0.441638" transform="matrix(0.659103 0.752053 -0.751778 0.659417 33.0724 17.337)" fill="white"/>
<path d="M37.8993 6.95516L36.6079 9.14575L38.2922 11.0509L35.8098 10.4996L34.5184 12.6902L34.2756 10.1589L31.7932 9.60766L34.1255 8.5945L33.8827 6.06322L35.567 7.96833L37.8993 6.95516Z" fill="#F2E7CA"/>
<path d="M45.0123 18.0195L44.0899 19.5842L45.293 20.9449L43.5198 20.5512L42.5974 22.1159L42.424 20.3078L40.6508 19.9141L42.3168 19.1904L42.1433 17.3824L43.3464 18.7431L45.0123 18.0195Z" fill="#F2E7CA"/>
</g>
<defs>
<clipPath id="clip0">
<rect width="25" height="45" fill="white" transform="translate(34.0771 0.232422) rotate(48.52)"/>
</clipPath>
</defs>
</svg>
